ffmpeg version 2.8.11-0ubuntu0.16.04.1 Copyright (c) 2000-2017 the FFmpeg developers
  built with gcc 5.4.0 (Ubuntu 5.4.0-6ubuntu1~16.04.4) 20160609
  configuration: --prefix=/usr --extra-version=0ubuntu0.16.04.1 --build-suffix=-ffmpeg --toolchain=hardened --libdir=/usr/lib/x86_64-linux-gnu --incdir=/usr/include/x86_64-linux-gnu --cc=cc --cxx=g++ --enable-gpl --enable-shared --disable-stripping --disable-decoder=libopenjpeg --disable-decoder=libschroedinger --enable-avresample --enable-avisynth --enable-gnutls --enable-ladspa --enable-libass --enable-libbluray --enable-libbs2b --enable-libcaca --enable-libcdio --enable-libflite --enable-libfontconfig --enable-libfreetype --enable-libfribidi --enable-libgme --enable-libgsm --enable-libmodplug --enable-libmp3lame --enable-libopenjpeg --enable-libopus --enable-libpulse --enable-librtmp --enable-libschroedinger --enable-libshine --enable-libsnappy --enable-libsoxr --enable-libspeex --enable-libssh --enable-libtheora --enable-libtwolame --enable-libvorbis --enable-libvpx --enable-libwavpack --enable-libwebp --enable-libx265 --enable-libxvid --enable-libzvbi --enable-openal --enable-opengl --enable-x11grab --enable-libdc1394 --enable-libiec61883 --enable-libzmq --enable-frei0r --enable-libx264 --enable-libopencv
  libavutil      54. 31.100 / 54. 31.100
  libavcodec     56. 60.100 / 56. 60.100
  libavformat    56. 40.101 / 56. 40.101
  libavdevice    56.  4.100 / 56.  4.100
  libavfilter     5. 40.101 /  5. 40.101
  libavresample   2.  1.  0 /  2.  1.  0
  libswscale      3.  1.101 /  3.  1.101
  libswresample   1.  2.101 /  1.  2.101
  libpostproc    53.  3.100 / 53.  3.100
[mp3 @ 0x9068c0] Unknown attached picture mimetype: ('image/png', None), skipping.
[mp3 @ 0x9068c0] Skipping 0 bytes of junk at 17522.
Input #0, mp3, from 'jan-andrzej-morsztyn-niestatek-oczy-sa-ogien-czolo-jest-zwierciadlem.mp3':
  Metadata:
    title           : Jan Andrzej Morsztyn, Niestatek (Oczy są ogień, czoło jest zwierciadłem...)
    artist          : Piotr Głowacki
    album           : Wolne Lektury
    encoder         : Lavf53.21.0
    genre           : Speech
    originator_reference: mj5oiaWrEElaaaGk
    date            : 2008-09-26
    performer       : Jakub Kowalski
    album_artist    : Fundacja Nowoczesna Polska
    time_reference  : 29592098
    copyright       : 2008 Fundacja Nowoczesna Polska. Licensed to the public under http://creativecommons.org/licenses/by-sa/3.0/deed.pl verify at http://wolnelektury.pl/katalog/lektura/niestatek-oczy-sa-ogien-czolo-jest-zwierciadlem/
    creation_time   : 0009-36-38
    encoded_by      : Pro Tools
    publisher       : Fundacja Nowoczesna Polska
  Duration: 00:00:48.14, start: 0.000000, bitrate: 66 kb/s
    Stream #0:0: Audio: mp3, 44100 Hz, mono, s16p, 64 kb/s
Output #0, null, to 'pipe:':
  Metadata:
    title           : Jan Andrzej Morsztyn, Niestatek (Oczy są ogień, czoło jest zwierciadłem...)
    artist          : Piotr Głowacki
    album           : Wolne Lektury
    publisher       : Fundacja Nowoczesna Polska
    genre           : Speech
    originator_reference: mj5oiaWrEElaaaGk
    date            : 2008-09-26
    performer       : Jakub Kowalski
    album_artist    : Fundacja Nowoczesna Polska
    time_reference  : 29592098
    copyright       : 2008 Fundacja Nowoczesna Polska. Licensed to the public under http://creativecommons.org/licenses/by-sa/3.0/deed.pl verify at http://wolnelektury.pl/katalog/lektura/niestatek-oczy-sa-ogien-czolo-jest-zwierciadlem/
    encoded_by      : Pro Tools
    encoder         : Lavf56.40.101
    Stream #0:0: Audio: pcm_s16le, 44100 Hz, mono, s16, 705 kb/s
    Metadata:
      encoder         : Lavc56.60.100 pcm_s16le
Stream mapping:
  Stream #0:0 -> #0:0 (mp3 (native) -> pcm_s16le (native))
Press [q] to stop, [?] for help
[silencedetect @ 0x919a20] silence_start: -0.00367347
[silencedetect @ 0x919a20] silence_end: 0.548571 | silence_duration: 0.552245
[silencedetect @ 0x919a20] silence_start: 1.90327
[silencedetect @ 0x919a20] silence_end: 2.92571 | silence_duration: 1.02245
[silencedetect @ 0x919a20] silence_start: 3.65347
[silencedetect @ 0x919a20] silence_end: 5.95592 | silence_duration: 2.30245
[silencedetect @ 0x919a20] silence_start: 7.15388
[silencedetect @ 0x919a20] silence_end: 8.38531 | silence_duration: 1.23143
[silencedetect @ 0x919a20] silence_start: 9.79224
[silencedetect @ 0x919a20] silence_end: 11.0759 | silence_duration: 1.28367
[silencedetect @ 0x919a20] silence_start: 12.1433
[silencedetect @ 0x919a20] silence_end: 13.3747 | silence_duration: 1.23143
[silencedetect @ 0x919a20] silence_start: 14.1286
[silencedetect @ 0x919a20] silence_end: 15.6735 | silence_duration: 1.5449
[silencedetect @ 0x919a20] silence_start: 17.4461
[silencedetect @ 0x919a20] silence_end: 18.8604 | silence_duration: 1.41429
[silencedetect @ 0x919a20] silence_start: 19.8494
[silencedetect @ 0x919a20] silence_end: 21.4988 | silence_duration: 1.64939
[silencedetect @ 0x919a20] silence_start: 22.4878
[silencedetect @ 0x919a20] silence_end: 24.2155 | silence_duration: 1.72776
[silencedetect @ 0x919a20] silence_start: 26.4061
[silencedetect @ 0x919a20] silence_end: 27.7682 | silence_duration: 1.36204
[silencedetect @ 0x919a20] silence_start: 28.7833
[silencedetect @ 0x919a20] silence_end: 29.7012 | silence_duration: 0.917959
[silencedetect @ 0x919a20] silence_start: 31.0298
[silencedetect @ 0x919a20] silence_end: 31.9478 | silence_duration: 0.917959
[silencedetect @ 0x919a20] silence_start: 33.0151
[silencedetect @ 0x919a20] silence_end: 34.1943 | silence_duration: 1.17918
[silencedetect @ 0x919a20] silence_start: 35.9147
[silencedetect @ 0x919a20] silence_end: 37.0939 | silence_duration: 1.17918
[silencedetect @ 0x919a20] silence_start: 38.9188
[silencedetect @ 0x919a20] silence_end: 39.8106 | silence_duration: 0.891837
[silencedetect @ 0x919a20] silence_start: 41.0608
[silencedetect @ 0x919a20] silence_end: 42.2139 | silence_duration: 1.15306
[silencedetect @ 0x919a20] silence_start: 43.3335
[silencedetect @ 0x919a20] silence_end: 44.382 | silence_duration: 1.04857
[silencedetect @ 0x919a20] silence_start: 45.5539
size=N/A time=00:00:48.14 bitrate=N/A    
video:0kB audio:4147kB subtitle:0kB other streams:0kB global headers:0kB muxing overhead: unknown
